<?xml version="1.0" encoding="iso-8859-1"?>
<!-- Uploaded to: SVG Repo, www.svgrepo.com, Generator: SVG Repo Mixer Tools -->
<svg version="1.1" id="Capa_1" xmlns="http://www.w3.org/2000/svg" xmlns:xlink="http://www.w3.org/1999/xlink" 
	 viewBox="0 0 450.31 450.31" xml:space="preserve">
<g>
	<path style="fill:#EFCAD9;" d="M194.642,218.751c1.516-0.753,3.2-1.381,5.083-1.82l12.947-4.493v-0.102
		c-8.083-5.442-13.577-15.993-13.577-28.092c0-17.158,3.329-20.424,6.849-24.871l-7.119-36.303
		c-0.017-0.087-0.029-0.174-0.037-0.262c-0.035-0.362-0.584-5.262-4.319-10.48l-13.317,38.231L194.642,218.751z"/>
	<path style="fill:#CC7050;" d="M210.072,178.075l5.152-8.206c0.734-1.172,2.278-1.523,3.446-0.788
		c0.33,0.207,0.587,0.483,0.781,0.793l0.007-0.005l5.152,8.206h21.309c0-17.045-14.986-22.491-20.765-22.491
		c-6.176,0-20.764,3.788-20.764,22.491H210.072z"/>
	<path style="fill:#EFCAD9;" d="M143.604,120.049v125.308h32.463v-94.981c0-0.055,0.012-0.107,0.016-0.161
		c0.005-0.08,0.009-0.159,0.022-0.239c0.015-0.095,0.04-0.185,0.065-0.275c0.014-0.049,0.019-0.098,0.035-0.146l14.447-41.473
		c-3.176-2.842-7.572-5.425-13.677-7.008c-0.062-0.017-7.479-2.57-7.479-2.57l-0.727,16.755c-0.036,0.83-0.482,1.589-1.191,2.022
		c-0.399,0.245-0.853,0.369-1.307,0.369c-0.352,0-0.706-0.074-1.036-0.225l-16.46-7.499L143.604,120.049z"/>
	<path style="fill:#FCEBE6;" d="M246.219,184.243c0-0.395-0.008-0.78-0.015-1.168h-22.976c-0.86,0-1.66-0.442-2.117-1.171
		l-3.77-6.005l-3.769,6.005c-0.457,0.729-1.257,1.171-2.117,1.171h-7.346c-0.007,0.388-0.015,0.773-0.015,1.168
		c0,14.895,9.448,27.012,21.062,27.012C236.771,211.255,246.219,199.138,246.219,184.243z M213.606,190.646
		c-0.471-0.471-0.73-1.11-0.73-1.77c0-0.66,0.26-1.3,0.73-1.77c0.93-0.931,2.609-0.931,3.529,0c0.471,0.47,0.74,1.109,0.74,1.77
		c0,0.66-0.27,1.3-0.74,1.77c-0.46,0.46-1.1,0.73-1.76,0.73C214.715,191.375,214.075,191.106,213.606,190.646z M230.231,205.045
		c-1.392,0.543-3.19,0.845-5.064,0.849c-0.014,0-0.028,0-0.042,0c-1.857,0-3.641-0.293-5.025-0.826
		c-2.892-1.114-3.327-2.945-3.329-3.938c-0.003-1.381,1.113-2.503,2.494-2.506c1.097,0.018,2.02,0.692,2.363,1.665
		c0.507,0.25,1.721,0.605,3.496,0.605c0.011,0,0.021,0,0.032,0c1.794-0.004,3.018-0.366,3.527-0.62
		c0.341-0.973,1.266-1.671,2.355-1.674c0.002,0,0.004,0,0.006,0c1.378,0,2.497,1.115,2.5,2.494
		C233.545,202.086,233.118,203.919,230.231,205.045z M236.705,190.606c-0.46,0.46-1.11,0.73-1.77,0.73
		c-0.65,0-1.301-0.27-1.761-0.73c-0.47-0.471-0.739-1.11-0.739-1.77c0-0.66,0.27-1.31,0.739-1.77c0.92-0.931,2.61-0.931,3.53,0
		c0.47,0.47,0.73,1.109,0.73,1.77C237.436,189.495,237.175,190.135,236.705,190.606z"/>
	<path style="fill:#FCEBE6;" d="M225.156,216.255c-2.635,0-5.179-0.487-7.578-1.385c-0.153,0.564-0.498,1.055-0.977,1.39
		c0.391,0.599,0.992,1.179,1.786,1.688c1.768,1.133,3.448,1.782,6.731,1.782s5.038-0.648,6.806-1.782
		c0.794-0.509,1.395-1.089,1.786-1.688c-0.479-0.335-0.823-0.825-0.977-1.39C230.335,215.768,227.791,216.255,225.156,216.255z"/>
	<polygon style="fill:#FFFFFF;" points="131.15,105.469 125.363,94.142 117.639,96.804 118.269,111.338 	"/>
	<path style="fill:#C69C6D;" d="M141.102,84.209c8.665,0,12.737-6.063,12.799-6.122c5.144-5.541,8.475-14.33,8.475-24.209V31.749
		c-0.206-1.517-7.688-5.068-21.273-5.068c-13.59,0-21.073,3.554-21.275,5.07v22.127c0,9.877,3.33,18.664,8.473,24.206
		C128.364,78.145,132.437,84.209,141.102,84.209z M141.102,76.324c-5.286,0-8.979-2.147-8.979-5.223c0-1.381,1.119-2.5,2.5-2.5
		c1.175,0,2.161,0.811,2.429,1.903c0.486,0.3,1.873,0.819,4.05,0.819c2.176,0,3.561-0.519,4.048-0.819
		c0.268-1.093,1.254-1.903,2.429-1.903c1.381,0,2.5,1.119,2.5,2.5C150.078,74.177,146.387,76.324,141.102,76.324z M153.635,55.245
		c-0.47,0.46-1.109,0.729-1.77,0.729c-0.66,0-1.3-0.269-1.771-0.729c-0.46-0.47-0.729-1.11-0.729-1.771
		c0-0.659,0.27-1.3,0.729-1.769c0.931-0.93,2.61-0.93,3.54,0c0.471,0.47,0.73,1.11,0.73,1.769
		C154.365,54.135,154.106,54.776,153.635,55.245z M147.908,43.794h8.566c1.381,0,2.5,1.119,2.5,2.5c0,1.381-1.119,2.5-2.5,2.5
		h-8.566c-1.381,0-2.5-1.119-2.5-2.5C145.408,44.913,146.527,43.794,147.908,43.794z M139.427,60.687
		c0.342,0.013,0.768,0.011,1.116,0.009l0.559-0.003l0.559,0.003c0.352,0.002,0.781,0.004,1.127-0.01
		c0.296-1.057,1.262-1.846,2.407-1.846c1.381,0,2.501,1.091,2.501,2.472c0,1.578-0.642,2.547-1.181,3.082
		c-1.209,1.2-2.869,1.304-4.408,1.304c-0.162,0-0.323-0.001-0.482-0.002l-0.522-0.003l-0.523,0.003
		c-1.672,0.008-3.557,0.025-4.893-1.303c-0.539-0.534-1.181-1.503-1.181-3.081c0-1.381,1.119-2.5,2.5-2.5
		C138.171,58.812,139.149,59.609,139.427,60.687z M123.229,46.294c0-1.381,1.119-2.5,2.5-2.5h8.564c1.381,0,2.5,1.119,2.5,2.5
		c0,1.381-1.119,2.5-2.5,2.5h-8.564C124.348,48.794,123.229,47.675,123.229,46.294z M128.566,51.705c0.93-0.93,2.609-0.93,3.54,0
		c0.46,0.47,0.73,1.11,0.73,1.769c0,0.65-0.27,1.301-0.73,1.771c-0.471,0.46-1.11,0.729-1.77,0.729c-0.66,0-1.3-0.269-1.77-0.729
		c-0.46-0.47-0.73-1.11-0.73-1.771C127.835,52.816,128.106,52.165,128.566,51.705z"/>
	<path style="fill:#C69C6D;" d="M153.102,85.292c-3.6,2.497-7.678,3.917-12,3.917c-4.322,0-8.4-1.419-12-3.916v5.175l12,23.487
		l12-23.487V85.292z"/>
	<polygon style="fill:#FFFFFF;" points="151.053,105.469 163.935,111.338 164.565,96.804 156.84,94.142 	"/>
	<path style="fill:#534741;" d="M167.375,31.747v22.131c0,3.396-0.365,6.679-1.034,9.789c1.5-0.902,2.835-1.848,3.715-3.064
		c1.173-1.619,1.635-3.891,2.123-6.297c0.289-1.418,0.587-2.884,1.05-4.316c0.444-1.376,1.051-2.699,1.637-3.98
		c1.029-2.248,2.002-4.372,2.002-6.485c0-2.113-0.973-4.237-2.002-6.485c-0.586-1.281-1.192-2.604-1.637-3.98
		c-0.463-1.433-0.762-2.899-1.05-4.317c-0.489-2.405-0.95-4.677-2.122-6.296c-1.189-1.645-3.209-2.794-5.348-4.012
		c-1.249-0.712-2.542-1.448-3.743-2.327c-1.184-0.867-2.264-1.865-3.309-2.831c-1.812-1.677-3.525-3.261-5.483-3.899
		c-1.859-0.609-4.154-0.352-6.58-0.083c-1.454,0.162-2.958,0.329-4.492,0.329c-1.534,0-3.038-0.167-4.493-0.329
		c-2.429-0.27-4.721-0.523-6.581,0.083c-1.957,0.639-3.67,2.223-5.482,3.899c-1.044,0.966-2.124,1.964-3.309,2.831
		c-1.201,0.879-2.492,1.614-3.741,2.325c-2.139,1.218-4.159,2.368-5.349,4.013c-1.173,1.621-1.636,3.894-2.124,6.302
		c-0.288,1.416-0.586,2.881-1.048,4.312c-0.444,1.377-1.051,2.7-1.637,3.981c-1.029,2.248-2.002,4.372-2.002,6.485
		c0,2.113,0.973,4.237,2.002,6.485c0.586,1.281,1.192,2.604,1.637,3.98c0.462,1.432,0.76,2.896,1.048,4.312
		c0.488,2.407,0.951,4.681,2.124,6.301c0.879,1.216,2.214,2.161,3.714,3.064c-0.669-3.111-1.034-6.393-1.034-9.789V31.747
		c0-6.916,13.62-10.066,26.275-10.066C153.756,21.681,167.375,24.831,167.375,31.747z"/>
	<path style="fill:#67BAB2;" d="M273.265,150.376v78.156h29.956h2.994v-8.037l-10.454-13.166c-0.389-0.489-0.58-1.107-0.536-1.73
		l5.983-84.851l-4.625-9.013l-12.487,5.689c-0.33,0.15-0.684,0.225-1.036,0.225c-0.493,0-0.984-0.146-1.405-0.433
		c-0.722-0.49-1.136-1.322-1.092-2.193l0.926-18.291c0,0-8.975,4.3-9.132,4.341c-6.104,1.583-10.501,4.166-13.677,7.007
		l14.446,41.474C273.143,149.603,273.265,149.945,273.265,150.376z"/>
	<path style="fill:#998675;" d="M290.161,29.341c0.24-0.132,5.954-3.229,12.796-1.188c5.204,1.555,9.543,5.572,12.898,11.942
		c1.544,2.932,3.215,4.488,4.966,4.629c2.734,0.191,5.76-2.93,6.602-4.05c0.828-1.104,2.395-1.326,3.501-0.497
		c0.372,0.279,0.635,0.646,0.801,1.049l0.008-0.004c0.018,0.042,0.035,0.091,0.052,0.135c0,0.001,0.001,0.001,0.001,0.002
		c1.029,2.63,2.198,9.639,2.737,14.902c1.796-3.348,3.396-10.308,1.109-24.584c-1.785-11.149-5.187-21.157-26.913-21.159
		c-21.727,0.002-25.128,10.01-26.913,21.159c-2.239,13.984-0.75,20.945,1,24.371c0.802-13.405,4.292-23.782,6.799-26.288
		C289.77,29.596,289.957,29.454,290.161,29.341z"/>
	<path style="fill:#E5CBBD;" d="M321.209,86.477c-3.456,1.85-7.584,2.729-12.484,2.731c0,0,0,0-0.001,0c-0.002,0-0.003,0-0.005,0
		c-0.002,0-0.003,0-0.005,0c-0.001,0-0.002,0-0.002,0c-4.899-0.002-9.026-0.882-12.482-2.731v3.989l7.018,13.682h10.944
		l7.018-13.682V86.477z"/>
	<polygon style="fill:#FFFFFF;" points="311.357,122.728 306.081,122.728 300.281,204.981 308.719,215.608 317.158,204.981 	"/>
	<polygon style="fill:#4D4D4D;" points="305.721,233.533 305.721,237.433 308.715,237.433 308.724,237.433 311.718,237.433 
		311.718,233.533 308.724,233.533 308.715,233.533 	"/>
	<polygon style="fill:#FFFFFF;" points="315.234,109.148 302.263,109.148 301.139,109.659 305.278,117.728 312.16,117.728 
		316.336,109.59 	"/>
	<path style="fill:#67BAB2;" d="M237.641,212.335v0.102l12.947,4.493c1.52,0.355,2.907,0.835,4.186,1.401l13.407-67.773
		l-13.317-38.231c-3.736,5.22-4.285,10.122-4.32,10.49c-0.008,0.08-0.02,0.171-0.036,0.251l-6.933,35.354
		c3.912,4.436,7.645,9.579,7.645,25.821C251.219,196.343,245.725,206.894,237.641,212.335z"/>
	<rect x="273.265" y="233.533" style="fill:#E6E6E6;" width="27.456" height="3.9"/>
	<path style="fill:#E5CBBD;" d="M308.719,84.208c8.597,0,13.268-4.465,13.339-4.528c3.462-3.361,6.101-9.013,7.751-18.263
		c0-0.006,0-0.011,0-0.017c0.191-1.677-0.685-9.339-1.689-14.401c-0.562,0.44-1.192,0.866-1.867,1.252
		c0.602,0.457,0.995,1.172,0.995,1.984c0,1.381-1.119,2.5-2.5,2.5h-7.748c-1.381,0-2.5-1.119-2.5-2.5
		c0-0.999,0.589-1.853,1.436-2.254c-1.68-1.222-3.19-3.062-4.504-5.556c-2.705-5.137-6.038-8.326-9.905-9.481
		c-3.944-1.181-7.456,0.106-8.574,0.597c-1.343,2.003-5.276,12.271-5.314,27.929c1.65,9.214,4.284,14.85,7.736,18.206
		C295.45,79.741,300.122,84.208,308.719,84.208z M318.805,55.325c0.931-0.93,2.61-0.93,3.53,0c0.47,0.47,0.74,1.11,0.74,1.77
		c0,0.66-0.27,1.301-0.74,1.771c-0.46,0.46-1.11,0.729-1.76,0.729c-0.66,0-1.31-0.27-1.77-0.729c-0.47-0.47-0.73-1.11-0.73-1.771
		C318.075,56.436,318.335,55.785,318.805,55.325z M304.67,73.227c0.486,0.3,1.873,0.819,4.05,0.819c2.176,0,3.561-0.52,4.048-0.819
		c0.268-1.093,1.254-1.903,2.429-1.903c1.381,0,2.5,1.119,2.5,2.5c0,3.075-3.691,5.223-8.976,5.223
		c-5.286,0-8.979-2.147-8.979-5.223c0-1.381,1.119-2.5,2.5-2.5C303.416,71.324,304.402,72.134,304.67,73.227z M290.191,50.236
		c0-1.381,1.119-2.5,2.5-2.5h7.748c1.381,0,2.5,1.119,2.5,2.5c0,1.381-1.119,2.5-2.5,2.5h-7.748
		C291.311,52.736,290.191,51.616,290.191,50.236z M294.365,57.095c0-0.659,0.27-1.31,0.73-1.77c0.931-0.93,2.6-0.93,3.54,0
		c0.46,0.46,0.73,1.11,0.73,1.77c0,0.66-0.27,1.301-0.73,1.761c-0.47,0.47-1.109,0.739-1.77,0.739c-0.66,0-1.3-0.27-1.77-0.739
		C294.635,58.396,294.365,57.755,294.365,57.095z"/>
	<path style="fill:#C69C6D;" d="M61.981,253.408c-0.482,3.714,2.148,7.132,5.865,7.615c1.804,0.236,3.587-0.246,5.025-1.355
		c1.439-1.108,2.361-2.711,2.595-4.512c0.01-0.069,1.608-7.483,1.608-7.483H62.736L61.981,253.408z"/>
	<path style="fill:#67BAB2;" d="M291.505,92.21c-0.041-0.08-0.062-0.168-0.093-0.251l-4.791,2.305l-0.856,16.906l12.535-5.712
		L291.505,92.21z"/>
	<path style="fill:#67BAB2;" d="M325.934,92.21l-6.739,13.139l12.424,4.987l-0.849-16.096l-4.742-2.281
		C325.994,92.042,325.975,92.13,325.934,92.21z"/>
	<path style="fill:#999999;" d="M344.174,242.433h-29.956h-5.494h-0.009h-5.494h-29.956v17.217l12.835,58.324
		c0.474,2.116,0.093,4.3-1.074,6.139c-1.167,1.839-2.98,3.112-5.105,3.587c-0.597,0.134-1.198,0.2-1.795,0.2
		c-1.529,0-3.03-0.434-4.353-1.272c-0.176-0.111-0.343-0.234-0.508-0.357v101.71h24.098l8.865-161.278
		c0.075-1.378,1.229-2.438,2.634-2.358c1.284,0.07,2.277,1.103,2.346,2.358h0.004l8.866,161.278h24.097V242.433z"/>
	<path style="fill:#B7C16F;" d="M263.305,235.952c-0.046-0.209-0.591-2.568-2.193-5.337l-8.009,23.46l2.359,7.358l12.598-7.452
		C268.06,253.982,263.313,235.992,263.305,235.952z"/>
	<path style="fill:#736357;" d="M268.372,435.977c-2.564,2.717-3.339,6.782-3.565,9.333h32.422v-12.33h-21
		C272.846,432.98,270.275,433.96,268.372,435.977z"/>
	<path style="fill:#C69C6D;" d="M233.104,438.658l-0.002,6.651h20.025c-0.224-1.541-0.769-3.519-2.078-4.902
		c-1.109-1.172-2.633-1.744-4.657-1.749H233.104z"/>
	<polygon style="fill:#FCEBE6;" points="233.125,375.622 233.106,433.658 244.024,433.658 247.032,375.622 	"/>
	<path style="fill:#5576A5;" d="M203.252,318.612l-5.532,52.011h21.701l3.245-37.102c0.12-1.376,1.333-2.4,2.708-2.273
		c1.228,0.107,2.163,1.085,2.267,2.272l0.006-0.001l3.269,37.104h21.678l-5.532-52.011H203.252z"/>
	<path style="fill:#B7C16F;" d="M255.211,224.256c-0.027-0.018-0.055-0.034-0.08-0.053c-1.614-1.05-3.523-1.913-5.79-2.429
		c-0.09-0.02-10.896-3.766-10.896-3.766c-0.76,1.582-2.059,3.018-3.822,4.147c-2.589,1.66-5.936,2.573-9.429,2.573
		c-0.011,0-0.021,0-0.032,0c-0.004,0-0.008,0-0.012,0c-0.011,0-0.021,0-0.032,0c-3.493,0-6.84-0.913-9.429-2.573
		c-1.763-1.13-3.062-2.565-3.822-4.147c0,0-10.806,3.745-10.895,3.766c-2.64,0.601-7.657,3.816-8.071,4.196l9.31,27.272
		c0.014,0.039,0.184,0.344,0.134,0.761l1.114,59.607h43.396l1.114-59.607c0-0.365,0.12-0.722,0.134-0.761l9.31-27.272
		C256.751,225.365,256.018,224.787,255.211,224.256z"/>
	<path style="fill:#FCEBE6;" d="M275.064,320.432c0.184,0.821,0.677,1.522,1.388,1.974c0.712,0.45,1.558,0.598,2.378,0.415
		c0.822-0.184,1.523-0.677,1.975-1.388c0.451-0.711,0.599-1.555,0.415-2.376l-12.901-58.626c-0.001-0.003-0.002-0.007-0.003-0.011
		l-0.151-0.69l-9.73,5.755l16.583,54.768C275.034,320.312,275.051,320.371,275.064,320.432z"/>
	<path style="fill:#E5CBBD;" d="M387.574,247.673h-14.338l1.572,7.276c0.015,0.068,0.026,0.137,0.036,0.206
		c0.233,1.801,1.155,3.403,2.595,4.512c1.439,1.108,3.226,1.59,5.025,1.354c3.717-0.483,6.348-3.901,5.864-7.62L387.574,247.673z"/>
	<polygon style="fill:#FFFFFF;" points="62.869,242.673 78.687,242.673 83.368,234.071 62.24,234.071 	"/>
	<polygon style="fill:#67BAB2;" points="388.161,234.724 367.137,234.724 371.602,242.673 387.473,242.673 	"/>
	<path style="fill:#67BAB2;" d="M366.895,122.807c-0.035-0.362-0.584-5.262-4.318-10.479l-13.318,38.231l15.661,79.165h22.931
		C387.85,229.724,366.902,122.895,366.895,122.807z"/>
	<path style="fill:#736357;" d="M341.211,432.98h-21v12.33h32.429c-0.222-2.549-0.994-6.614-3.588-9.35
		C347.15,433.954,344.585,432.98,341.211,432.98z"/>
	<rect x="316.718" y="233.533" style="fill:#E6E6E6;" width="27.456" height="3.9"/>
	<path style="fill:#67BAB2;" d="M345.083,101.074c-0.157-0.041-9.177-4.362-9.177-4.362l0.911,17.271
		c0.045,0.853-0.348,1.669-1.042,2.165c-0.431,0.309-0.94,0.467-1.454,0.467c-0.314,0-0.631-0.06-0.932-0.18l-12.393-4.975
		l-4.767,9.288l5.984,84.851c0.044,0.623-0.147,1.241-0.536,1.73l-10.464,13.177v8.026h3.003h29.956v-78.156
		c0.058-0.383,0.121-0.773,0.139-0.822l14.447-41.474C355.584,105.24,351.188,102.657,345.083,101.074z"/>
	<path style="fill:#FCEBE6;" d="M169.096,319.048c-0.186,0.83-0.038,1.674,0.413,2.385c0.451,0.711,1.152,1.204,1.974,1.388
		c0.823,0.183,1.667,0.035,2.379-0.415c0.711-0.451,1.204-1.152,1.388-1.974c0.013-0.061,0.029-0.12,0.047-0.18l16.583-54.768
		l-9.73-5.755L169.096,319.048z"/>
	<path style="fill:#B7C16F;" d="M186.98,236.072l-4.727,17.91l12.598,7.452l2.359-7.358l-8.009-23.459
		C187.598,233.386,186.989,236.037,186.98,236.072z"/>
	<path style="fill:#B3B3B3;" d="M173.104,432.98h-21v12.33h32.429c-0.222-2.549-0.994-6.614-3.588-9.35
		C179.043,433.954,176.478,432.98,173.104,432.98z"/>
	<path style="fill:#BADFE8;" d="M176.066,326.883c-1.204,0.658-2.526,1.017-3.879,1.017c-0.598,0-1.198-0.066-1.796-0.2
		c-2.124-0.475-3.938-1.748-5.104-3.587c-1.167-1.839-1.548-4.022-1.072-6.147l11.852-53.855v-13.753h-69.93V427.98h24.09
		l8.376-161.27c0.071-1.38,1.27-2.428,2.627-2.367c1.29,0.067,2.289,1.105,2.354,2.368l0.017-0.001l8.376,161.27h24.09V326.883z"/>
	<path style="fill:#B3B3B3;" d="M101.243,435.977c-2.564,2.717-3.339,6.782-3.565,9.333H130.1v-12.33h-21
		C105.717,432.98,103.147,433.96,101.243,435.977z"/>
	<path style="fill:#C69C6D;" d="M203.921,438.658c-2.024,0.005-3.548,0.577-4.657,1.749c-1.31,1.384-1.854,3.36-2.078,4.902h20.025
		l-0.002-6.651H203.921z"/>
	<path style="fill:#EFCAD9;" d="M83.416,122.808c-0.008,0.088-0.021,0.175-0.037,0.262l-20.79,106.001h22.933l15.531-78.512
		l-13.299-38.177C83.941,117.724,83.424,122.718,83.416,122.808z"/>
	<polygon style="fill:#FCEBE6;" points="217.207,433.658 217.188,375.622 203.28,375.622 206.289,433.658 	"/>
	<path style="fill:#EFCAD9;" d="M106.033,149.7c0.025,0.091,0.051,0.181,0.065,0.275c0.014,0.08,0.018,0.159,0.022,0.239
		c0.004,0.055,0.016,0.106,0.016,0.161v94.981H138.6V120.049l-5.172-10.123l-16.46,7.499c-0.33,0.15-0.684,0.225-1.036,0.225
		c-0.455,0-0.907-0.124-1.307-0.369c-0.709-0.434-1.155-1.192-1.191-2.022l-0.726-16.755c0,0-7.417,2.554-7.48,2.57
		c-6.093,1.581-10.486,4.184-13.663,7.047l14.434,41.434C106.015,149.603,106.02,149.652,106.033,149.7z"/>
	<path style="fill:#1C1B1A;" d="M231.043,198.6c-0.002,0-0.004,0-0.006,0c-1.089,0.003-2.014,0.701-2.355,1.674
		c-0.51,0.254-1.733,0.616-3.527,0.62c-0.011,0-0.021,0-0.032,0c-1.775,0-2.989-0.355-3.496-0.605
		c-0.344-0.973-1.267-1.647-2.363-1.665c-1.381,0.003-2.497,1.125-2.494,2.506c0.002,0.992,0.438,2.823,3.329,3.938
		c1.385,0.533,3.168,0.826,5.025,0.826c0.014,0,0.028,0,0.042,0c1.874-0.004,3.673-0.306,5.064-0.849
		c2.888-1.126,3.314-2.959,3.312-3.951C233.54,199.715,232.421,198.6,231.043,198.6z"/>
	<path style="fill:#1C1B1A;" d="M217.875,188.875c0-0.66-0.27-1.3-0.74-1.77c-0.92-0.931-2.6-0.931-3.529,0
		c-0.471,0.47-0.73,1.109-0.73,1.77c0,0.66,0.26,1.3,0.73,1.77c0.47,0.46,1.109,0.73,1.77,0.73c0.66,0,1.3-0.27,1.76-0.73
		C217.606,190.175,217.875,189.535,217.875,188.875z"/>
	<path style="fill:#1C1B1A;" d="M233.175,187.066c-0.47,0.46-0.739,1.109-0.739,1.77c0,0.66,0.27,1.3,0.739,1.77
		c0.46,0.46,1.11,0.73,1.761,0.73c0.659,0,1.309-0.27,1.77-0.73c0.47-0.471,0.73-1.11,0.73-1.77c0-0.66-0.261-1.3-0.73-1.77
		C235.785,186.135,234.095,186.135,233.175,187.066z"/>
	<path style="fill:#1C1B1A;" d="M299.741,73.824c0,3.075,3.692,5.223,8.979,5.223c5.285,0,8.976-2.147,8.976-5.223
		c0-1.381-1.119-2.5-2.5-2.5c-1.175,0-2.161,0.811-2.429,1.903c-0.486,0.3-1.872,0.819-4.048,0.819c-2.177,0-3.564-0.52-4.05-0.819
		c-0.267-1.093-1.254-1.903-2.429-1.903C300.86,71.324,299.741,72.443,299.741,73.824z"/>
	<path style="fill:#1C1B1A;" d="M298.635,58.856c0.46-0.46,0.73-1.101,0.73-1.761c0-0.659-0.27-1.31-0.73-1.77
		c-0.939-0.93-2.609-0.93-3.54,0c-0.46,0.46-0.73,1.11-0.73,1.77c0,0.66,0.27,1.301,0.73,1.761c0.471,0.47,1.11,0.739,1.77,0.739
		C297.525,59.595,298.165,59.325,298.635,58.856z"/>
	<path style="fill:#1C1B1A;" d="M320.575,59.595c0.649,0,1.3-0.27,1.76-0.729c0.47-0.47,0.74-1.11,0.74-1.771
		c0-0.659-0.27-1.3-0.74-1.77c-0.92-0.93-2.6-0.93-3.53,0c-0.47,0.46-0.73,1.11-0.73,1.77c0,0.66,0.26,1.301,0.73,1.771
		C319.265,59.325,319.915,59.595,320.575,59.595z"/>
	<path style="fill:#1C1B1A;" d="M392.279,245.115l1.099-12.675c0.002-0.026-21.518-110.222-21.518-110.222
		c-0.218-1.97-2.814-19.972-25.282-25.922l-20.369-9.799v-3.862c3.953-4.188,6.631-10.477,8.307-19.17
		c3.38-1.861,9.891-8.607,6.054-32.578c-1.42-8.864-4.062-25.363-31.844-25.368c0,0-0.001,0-0.002,0c-0.002,0-0.003,0-0.005,0
		c-0.002,0-0.003,0-0.005,0c-0.001,0-0.001,0-0.001,0c-27.783,0.005-30.425,16.504-31.845,25.368
		c-3.837,23.973,2.674,30.717,6.054,32.578c1.676,8.693,4.354,14.982,8.308,19.171v3.862l-20.368,9.798
		c-22.469,5.95-25.065,23.952-25.283,25.922l-6.352,32.393c-5.07-3.374-10.593-4.026-14.07-4.026c-3.676,0-9.639,0.723-14.934,4.625
		l-6.47-32.99c-0.218-1.974-2.822-20.049-25.426-25.96l-20.226-6.971v-8.504c2.438-2.789,4.495-6.16,6.047-9.96
		c0.918-0.647,1.94-1.241,3.031-1.862c2.508-1.429,5.101-2.905,6.927-5.428c1.806-2.494,2.398-5.411,2.973-8.232
		c0.273-1.342,0.53-2.608,0.907-3.775c0.354-1.098,0.874-2.233,1.425-3.436c1.151-2.515,2.456-5.364,2.456-8.567
		c0-3.203-1.305-6.053-2.456-8.567c-0.551-1.202-1.07-2.338-1.425-3.436c-0.377-1.167-0.635-2.434-0.907-3.776
		c-0.574-2.82-1.167-5.736-2.972-8.232c-1.825-2.521-4.417-3.998-6.924-5.425c-1.18-0.672-2.294-1.307-3.265-2.018
		c-0.953-0.697-1.883-1.557-2.866-2.467c-2.029-1.876-4.328-4.003-7.327-4.982c-2.889-0.942-5.834-0.614-8.684-0.298
		c-1.38,0.153-2.683,0.298-3.94,0.298s-2.561-0.145-3.94-0.298c-2.851-0.317-5.798-0.645-8.686,0.298
		c-2.997,0.979-5.297,3.105-7.325,4.982c-0.984,0.91-1.914,1.77-2.867,2.467c-0.97,0.71-2.084,1.344-3.263,2.016
		c-2.507,1.428-5.1,2.904-6.925,5.426c-1.807,2.497-2.4,5.415-2.974,8.238c-0.272,1.34-0.529,2.606-0.905,3.77
		c-0.354,1.098-0.874,2.233-1.425,3.436c-1.151,2.515-2.456,5.364-2.456,8.567c0,3.203,1.305,6.053,2.456,8.567
		c0.551,1.202,1.07,2.338,1.425,3.435c0.376,1.165,0.633,2.432,0.905,3.771c0.573,2.822,1.167,5.741,2.974,8.237
		c1.824,2.522,4.416,3.998,6.923,5.426c1.093,0.621,2.117,1.217,3.035,1.865c1.552,3.8,3.609,7.172,6.048,9.961v8.502l-20.226,6.971
		c-22.604,5.911-25.208,23.986-25.426,25.96c0,0-21.395,109.51-21.393,109.534l0.976,13.346l-1.011,7.659
		c-0.838,6.452,3.728,12.385,10.179,13.224c0.517,0.066,1.033,0.1,1.546,0.1c2.588,0,5.09-0.847,7.174-2.451
		c2.469-1.9,4.06-4.639,4.489-7.72l2.129-9.855l7.231-13.289c0.024-0.045,11.366-56.87,11.366-56.87v71.961
		c0,0.005,0.002,0.01,0.002,0.014c0,0.005-0.002,0.01-0.002,0.015v181.948c-1.306,0.705-2.486,1.607-3.529,2.711
		c-5.49,5.816-5.026,15.021-5.004,15.409c0.076,1.323,1.171,2.356,2.496,2.356h37.5c1.381,0,2.5-1.119,2.5-2.5v-17.257
		l6.002-115.548l6.002,115.548v17.257c0,1.381,1.119,2.5,2.5,2.5h37.5c1.325,0,2.42-1.033,2.496-2.356
		c0.022-0.389,0.486-9.593-5.004-15.409c-1.043-1.104-2.224-2.006-3.529-2.711V318.447l15.377-50.784
		c0.244-0.017,0.486-0.056,0.719-0.145c0.151-0.058,0.294-0.128,0.429-0.212l0.91,48.697l-6.048,56.854
		c-0.074,0.705,0.153,1.409,0.627,1.937c0.475,0.527,1.15,0.828,1.859,0.828h3.333l3.022,58.281
		c-2.262,0.44-4.168,1.477-5.688,3.095c-3.916,4.166-3.573,10.686-3.557,10.961c0.079,1.32,1.173,2.351,2.495,2.351h25.167
		c0.663,0,1.299-0.264,1.769-0.732c0.469-0.469,0.731-1.105,0.731-1.769l-0.004-11.649v-0.001c0,0,0,0,0-0.001l-0.021-60.58
		c1.076-0.208,1.916-1.108,2.015-2.237l0.963-11.014l0.971,11.016c0.099,1.119,0.926,2.011,1.989,2.228l-0.02,60.588
		c0,0.001,0,0.001,0,0.001v0.001l-0.004,11.649c0,0.663,0.263,1.3,0.732,1.769c0.47,0.469,1.105,0.732,1.768,0.732h25.167
		c1.322,0,2.416-1.03,2.495-2.351c0.017-0.275,0.359-6.795-3.557-10.961c-1.52-1.618-3.427-2.654-5.688-3.095l3.022-58.281h3.333
		c0.709,0,1.385-0.301,1.859-0.828c0.474-0.527,0.701-1.232,0.627-1.937l-6.048-56.854l0.91-48.697
		c0.135,0.084,0.277,0.154,0.429,0.212c0.232,0.089,0.475,0.128,0.719,0.145l14.396,47.543v114.629
		c-1.306,0.705-2.485,1.605-3.528,2.71c-5.49,5.816-5.026,15.021-5.004,15.409c0.076,1.323,1.171,2.356,2.496,2.356h37.5
		c1.381,0,2.5-1.119,2.5-2.5v-17.264l6.49-118.082l6.492,118.082v17.264c0,1.381,1.119,2.5,2.5,2.5h37.5
		c1.325,0,2.42-1.033,2.496-2.356c0.022-0.389,0.486-9.593-5.004-15.409c-1.043-1.104-2.224-2.006-3.529-2.711V231.033v-55.137
		c0,0,11.483,57.502,11.512,57.553l7.09,12.621l2.125,9.84c0.43,3.081,2.021,5.819,4.489,7.72c2.084,1.605,4.586,2.452,7.174,2.451
		c0.513,0,1.029-0.033,1.546-0.1c6.451-0.839,11.017-6.771,10.178-13.228L392.279,245.115z M330.77,94.241l0.849,16.096
		l-12.424-4.987l6.739-13.139c0.041-0.08,0.061-0.168,0.094-0.251L330.77,94.241z M308.719,215.608l-8.438-10.627l5.8-82.253h5.276
		l5.801,82.253L308.719,215.608z M308.724,233.533h2.994v3.9h-2.994h-0.009h-2.994v-3.9h2.994H308.724z M305.278,117.728
		l-4.14-8.068l1.124-0.512h12.972l1.102,0.442l-4.176,8.138H305.278z M314.191,104.148h-10.944l-7.018-13.682v-3.989
		c3.456,1.85,7.583,2.729,12.482,2.731c0,0,0.001,0,0.002,0c0.002,0,0.003,0,0.005,0c0.002,0,0.003,0,0.005,0
		c0.001,0,0.001,0,0.001,0c4.9-0.002,9.028-0.882,12.484-2.731v3.989L314.191,104.148z M282.806,56.049
		c-1.75-3.426-3.239-10.387-1-24.371c1.785-11.149,5.187-21.157,26.913-21.159c21.727,0.002,25.128,10.01,26.913,21.159
		c2.286,14.276,0.686,21.236-1.109,24.584c-0.539-5.264-1.708-12.272-2.737-14.902c0-0.001-0.001-0.001-0.001-0.002
		c-0.017-0.044-0.034-0.093-0.052-0.135l-0.008,0.004c-0.166-0.402-0.429-0.77-0.801-1.049c-1.105-0.829-2.673-0.606-3.501,0.497
		c-0.842,1.12-3.867,4.241-6.602,4.05c-1.751-0.141-3.422-1.697-4.966-4.629c-3.355-6.37-7.694-10.388-12.898-11.942
		c-6.842-2.042-12.556,1.056-12.796,1.188c-0.204,0.113-0.392,0.255-0.557,0.42C287.098,32.267,283.607,42.644,282.806,56.049z
		 M287.639,61.47c0.037-15.658,3.971-25.926,5.314-27.929c1.118-0.49,4.63-1.777,8.574-0.597c3.867,1.155,7.2,4.345,9.905,9.481
		c1.313,2.494,2.824,4.334,4.504,5.556c-0.848,0.4-1.436,1.255-1.436,2.254c0,1.381,1.119,2.5,2.5,2.5h7.748
		c1.381,0,2.5-1.119,2.5-2.5c0-0.812-0.394-1.527-0.995-1.984c0.675-0.386,1.305-0.812,1.867-1.252
		c1.004,5.062,1.881,12.725,1.689,14.401c0,0.006,0,0.011,0,0.017c-1.65,9.25-4.289,14.901-7.751,18.263
		c-0.071,0.063-4.742,4.528-13.339,4.528c-8.597,0-13.269-4.467-13.344-4.532C291.923,76.32,289.289,70.684,287.639,61.47z
		 M286.621,94.264l4.791-2.305c0.031,0.083,0.052,0.171,0.093,0.251l6.795,13.248l-12.535,5.712L286.621,94.264z M272.357,101.074
		c0.157-0.041,9.132-4.341,9.132-4.341l-0.926,18.291c-0.044,0.871,0.37,1.703,1.092,2.193c0.421,0.287,0.912,0.433,1.405,0.433
		c0.353,0,0.706-0.074,1.036-0.225l12.487-5.689l4.625,9.013l-5.983,84.851c-0.044,0.623,0.147,1.241,0.536,1.73l10.454,13.166
		v8.037h-2.994h-29.956v-78.156c0-0.432-0.122-0.773-0.139-0.822L258.68,108.08C261.856,105.24,266.252,102.657,272.357,101.074z
		 M300.721,233.533v3.9h-27.456v-3.9H300.721z M250.507,123.069c0.016-0.08,0.028-0.171,0.036-0.251
		c0.035-0.368,0.584-5.271,4.32-10.49l13.317,38.231l-13.407,67.773c-1.278-0.566-2.665-1.047-4.186-1.401l-12.947-4.493v-0.102
		c8.084-5.441,13.578-15.992,13.578-28.092c0-16.242-3.732-21.385-7.645-25.821L250.507,123.069z M268.265,175.897v55.136v4.132
		l-0.084-0.318c-0.206-0.914-2.108-8.595-8.847-13.804L268.265,175.897z M225.156,211.255c-11.613,0-21.062-12.117-21.062-27.012
		c0-0.395,0.008-0.78,0.015-1.168h7.346c0.86,0,1.66-0.442,2.117-1.171l3.769-6.005l3.77,6.005c0.457,0.729,1.257,1.171,2.117,1.171
		h22.976c0.007,0.388,0.015,0.773,0.015,1.168C246.219,199.138,236.771,211.255,225.156,211.255z M233.711,216.26
		c-0.391,0.599-0.992,1.179-1.786,1.688c-1.768,1.134-3.522,1.782-6.806,1.782s-4.964-0.649-6.731-1.782
		c-0.794-0.509-1.396-1.089-1.786-1.688c0.479-0.335,0.823-0.825,0.977-1.39c2.399,0.897,4.943,1.385,7.578,1.385
		c2.635,0,5.179-0.487,7.578-1.385C232.888,215.435,233.232,215.925,233.711,216.26z M225.156,155.584
		c5.778,0,20.765,5.446,20.765,22.491h-21.309l-5.152-8.206l-0.007,0.005c-0.194-0.31-0.451-0.586-0.781-0.793
		c-1.168-0.734-2.712-0.384-3.446,0.788l-5.152,8.206h-5.68C204.393,159.372,218.981,155.584,225.156,155.584z M198.787,122.808
		c0.008,0.088,0.02,0.175,0.037,0.262l7.119,36.303c-3.52,4.447-6.849,7.713-6.849,24.871c0,12.099,5.494,22.649,13.577,28.092
		v0.102l-12.947,4.493c-1.883,0.439-3.567,1.067-5.083,1.82l-13.491-68.192l13.317-38.231
		C198.203,117.546,198.752,122.446,198.787,122.808z M190.135,221.728c-6.056,5.173-7.806,12.244-8.003,13.118l-1.065,4.037v-62.989
		L190.135,221.728z M166.272,117.65c0.454,0,0.907-0.124,1.307-0.369c0.709-0.434,1.155-1.192,1.191-2.022l0.727-16.755
		c0,0,7.417,2.554,7.479,2.57c6.105,1.583,10.501,4.166,13.677,7.008l-14.447,41.473c-0.017,0.049-0.021,0.098-0.035,0.146
		c-0.025,0.091-0.051,0.181-0.065,0.275c-0.014,0.08-0.018,0.159-0.022,0.239c-0.004,0.054-0.016,0.106-0.016,0.161v94.981h-32.463
		V120.049l5.172-10.123l16.46,7.499C165.566,117.575,165.919,117.65,166.272,117.65z M141.102,113.955l-12-23.487v-5.175
		c3.6,2.497,7.678,3.916,12,3.916c4.322,0,8.4-1.42,12-3.917v5.176L141.102,113.955z M164.565,96.804l-0.63,14.534l-12.882-5.869
		l5.787-11.327L164.565,96.804z M114.826,31.747v22.131c0,3.396,0.365,6.678,1.034,9.789c-1.5-0.903-2.835-1.849-3.714-3.064
		c-1.173-1.62-1.636-3.894-2.124-6.301c-0.288-1.416-0.586-2.881-1.048-4.312c-0.444-1.376-1.051-2.699-1.637-3.98
		c-1.029-2.248-2.002-4.372-2.002-6.485c0-2.113,0.973-4.237,2.002-6.485c0.586-1.281,1.192-2.604,1.637-3.981
		c0.462-1.431,0.76-2.896,1.048-4.312c0.488-2.407,0.951-4.681,2.124-6.302c1.189-1.645,3.21-2.795,5.349-4.013
		c1.249-0.711,2.54-1.446,3.741-2.325c1.185-0.867,2.265-1.865,3.309-2.831c1.812-1.677,3.525-3.261,5.482-3.899
		c1.86-0.606,4.152-0.352,6.581-0.083c1.455,0.162,2.959,0.329,4.493,0.329c1.534,0,3.038-0.167,4.492-0.329
		c2.426-0.27,4.721-0.526,6.58,0.083c1.959,0.639,3.671,2.223,5.483,3.899c1.045,0.966,2.124,1.964,3.309,2.831
		c1.201,0.879,2.494,1.615,3.743,2.327c2.139,1.218,4.158,2.367,5.348,4.012c1.172,1.619,1.633,3.891,2.122,6.296
		c0.288,1.418,0.587,2.885,1.05,4.317c0.444,1.376,1.051,2.699,1.637,3.98c1.029,2.248,2.002,4.372,2.002,6.485
		c0,2.113-0.973,4.237-2.002,6.485c-0.586,1.281-1.192,2.604-1.637,3.98c-0.463,1.433-0.761,2.898-1.05,4.316
		c-0.488,2.406-0.95,4.678-2.123,6.297c-0.88,1.217-2.215,2.162-3.715,3.064c0.669-3.11,1.034-6.393,1.034-9.789V31.747
		c0-6.916-13.619-10.066-26.273-10.066C128.446,21.681,114.826,24.831,114.826,31.747z M119.826,53.878V31.751
		c0.202-1.517,7.686-5.07,21.275-5.07c13.586,0,21.067,3.552,21.273,5.068v22.129c0,9.879-3.331,18.668-8.475,24.209
		c-0.062,0.059-4.134,6.122-12.799,6.122c-8.665,0-12.737-6.064-12.803-6.125C123.156,72.542,119.826,63.755,119.826,53.878z
		 M125.363,94.142l5.787,11.327l-12.882,5.869l-0.63-14.534L125.363,94.142z M75.466,255.157c-0.233,1.801-1.155,3.403-2.595,4.512
		c-1.438,1.108-3.222,1.591-5.025,1.355c-3.717-0.483-6.348-3.901-5.865-7.615l0.756-5.734h14.338
		C77.074,247.673,75.476,255.087,75.466,255.157z M78.687,242.673H62.869l-0.629-8.603h21.128L78.687,242.673z M85.522,229.071
		H62.589l20.79-106.001c0.017-0.087,0.029-0.174,0.037-0.262c0.008-0.09,0.525-5.084,4.338-10.426l13.299,38.177L85.522,229.071z
		 M91.565,108.12c3.177-2.863,7.57-5.466,13.663-7.047c0.062-0.017,7.48-2.57,7.48-2.57l0.726,16.755
		c0.036,0.83,0.482,1.589,1.191,2.022c0.399,0.245,0.852,0.369,1.307,0.369c0.353,0,0.706-0.074,1.036-0.225l16.46-7.499
		l5.172,10.123v125.308h-32.463v-94.981c0-0.055-0.012-0.106-0.016-0.161c-0.005-0.08-0.009-0.159-0.022-0.239
		c-0.015-0.095-0.04-0.185-0.065-0.275c-0.014-0.049-0.019-0.098-0.035-0.146L91.565,108.12z M130.1,445.31H97.678
		c0.227-2.551,1.001-6.616,3.565-9.333c1.903-2.017,4.474-2.997,7.856-2.997h21V445.31z M143.601,266.71l-0.017,0.001
		c-0.065-1.263-1.064-2.301-2.354-2.368c-1.357-0.06-2.556,0.987-2.627,2.367l-8.376,161.27h-24.09V250.357h69.93v13.753
		l-11.852,53.855c-0.476,2.125-0.095,4.309,1.072,6.147c1.167,1.839,2.98,3.112,5.104,3.587c0.598,0.134,1.198,0.2,1.796,0.2
		c1.353,0,2.675-0.358,3.879-1.017V427.98h-24.09L143.601,266.71z M184.532,445.31h-32.429v-12.33h21
		c3.374,0,5.939,0.975,7.841,2.98C183.538,438.696,184.311,442.761,184.532,445.31z M175.296,320.252
		c-0.018,0.06-0.034,0.119-0.047,0.18c-0.184,0.821-0.677,1.522-1.388,1.974c-0.712,0.45-1.556,0.598-2.379,0.415
		c-0.821-0.184-1.522-0.677-1.974-1.388c-0.451-0.711-0.599-1.555-0.413-2.385l13.054-59.318l9.73,5.755L175.296,320.252z
		 M194.851,261.434l-12.598-7.452l4.727-17.91c0.01-0.034,0.618-2.686,2.222-5.455l8.009,23.459L194.851,261.434z M197.186,445.31
		c0.224-1.542,0.768-3.519,2.078-4.902c1.109-1.172,2.633-1.744,4.657-1.749h13.288l0.002,6.651H197.186z M203.28,375.622h13.907
		l0.02,58.036h-10.918L203.28,375.622z M251.049,440.408c1.309,1.384,1.854,3.361,2.078,4.902h-20.025l0.002-6.651h13.288
		C248.416,438.663,249.94,439.236,251.049,440.408z M233.106,433.658l0.02-58.036h13.907l-3.009,58.036H233.106z M252.593,370.622
		h-21.678l-3.269-37.104l-0.006,0.001c-0.104-1.186-1.039-2.164-2.267-2.272c-1.375-0.127-2.588,0.897-2.708,2.273l-3.245,37.102
		H197.72l5.532-52.011h43.809L252.593,370.622z M248.103,253.243c-0.014,0.039-0.134,0.396-0.134,0.761l-1.114,59.607h-43.396
		l-1.114-59.607c0.05-0.417-0.12-0.722-0.134-0.761l-9.31-27.272c0.414-0.38,5.432-3.596,8.071-4.196
		c0.09-0.02,10.895-3.766,10.895-3.766c0.76,1.582,2.06,3.018,3.822,4.147c2.589,1.66,5.936,2.573,9.429,2.573
		c0.011,0,0.021,0,0.032,0c0.004,0,0.008,0,0.012,0c0.011,0,0.021,0,0.032,0c3.493,0,6.84-0.913,9.429-2.573
		c1.763-1.13,3.062-2.565,3.822-4.147c0,0,10.806,3.745,10.896,3.766c2.267,0.516,4.176,1.379,5.79,2.429
		c0.025,0.018,0.053,0.035,0.08,0.053c0.807,0.531,1.54,1.108,2.201,1.715L248.103,253.243z M253.103,254.075l8.009-23.46
		c1.603,2.769,2.147,5.128,2.193,5.337c0.008,0.04,4.755,18.029,4.755,18.029l-12.598,7.452L253.103,254.075z M258.434,265.485
		l9.73-5.755l0.151,0.69c0.001,0.004,0.002,0.008,0.003,0.011l12.901,58.626c0.184,0.821,0.036,1.665-0.415,2.376
		c-0.451,0.711-1.152,1.204-1.975,1.388c-0.82,0.183-1.666,0.035-2.378-0.415c-0.711-0.451-1.204-1.152-1.388-1.974
		c-0.013-0.061-0.029-0.12-0.047-0.18L258.434,265.485z M297.229,445.31h-32.422c0.227-2.551,1.001-6.616,3.565-9.333
		c1.903-2.017,4.474-2.997,7.856-2.997h21V445.31z M311.211,266.701h-0.004c-0.068-1.256-1.062-2.288-2.346-2.358
		c-1.405-0.08-2.559,0.98-2.634,2.358l-8.865,161.278h-24.098V326.27c0.165,0.123,0.332,0.246,0.508,0.357
		c1.322,0.839,2.823,1.272,4.353,1.272c0.597,0,1.198-0.066,1.795-0.2c2.125-0.475,3.939-1.748,5.105-3.587
		c1.167-1.839,1.548-4.022,1.074-6.139l-12.835-58.324v-17.217h29.956h5.494h0.009h5.494h29.956V427.98h-24.097L311.211,266.701z
		 M316.718,237.433v-3.9h27.456v3.9H316.718z M352.64,445.31h-32.429v-12.33h21c3.374,0,5.939,0.975,7.841,2.98
		C351.646,438.696,352.418,442.761,352.64,445.31z M344.313,149.554c-0.018,0.049-0.081,0.439-0.139,0.822v78.156h-29.956h-3.003
		v-8.026l10.464-13.177c0.389-0.489,0.58-1.107,0.536-1.73l-5.984-84.851l4.767-9.288l12.393,4.975
		c0.301,0.12,0.617,0.18,0.932,0.18c0.514,0,1.024-0.158,1.454-0.467c0.694-0.496,1.087-1.312,1.042-2.165l-0.911-17.271
		c0,0,9.02,4.321,9.177,4.362c6.104,1.583,10.501,4.166,13.677,7.007L344.313,149.554z M349.258,150.559l13.318-38.231
		c3.734,5.218,4.283,10.117,4.318,10.479c0.008,0.088,20.955,106.917,20.955,106.917h-22.931L349.258,150.559z M367.137,234.724
		h21.024l-0.688,7.949h-15.871L367.137,234.724z M382.465,261.022c-1.8,0.235-3.586-0.246-5.025-1.354
		c-1.44-1.108-2.361-2.711-2.595-4.512c-0.01-0.069-0.022-0.138-0.036-0.206l-1.572-7.276h14.338l0.755,5.729
		C388.813,257.12,386.182,260.538,382.465,261.022z"/>
	<path style="fill:#1C1B1A;" d="M302.94,50.236c0-1.381-1.119-2.5-2.5-2.5h-7.748c-1.381,0-2.5,1.119-2.5,2.5
		c0,1.381,1.119,2.5,2.5,2.5h7.748C301.82,52.736,302.94,51.616,302.94,50.236z"/>
	<path style="fill:#1C1B1A;" d="M147.578,68.602c-1.175,0-2.161,0.811-2.429,1.903c-0.486,0.3-1.872,0.819-4.048,0.819
		c-2.177,0-3.564-0.519-4.05-0.819c-0.268-1.093-1.254-1.903-2.429-1.903c-1.381,0-2.5,1.119-2.5,2.5
		c0,3.075,3.692,5.223,8.979,5.223c5.285,0,8.977-2.147,8.977-5.223C150.078,69.721,148.959,68.602,147.578,68.602z"/>
	<path style="fill:#1C1B1A;" d="M130.335,55.975c0.66,0,1.3-0.269,1.77-0.729c0.46-0.47,0.73-1.12,0.73-1.771
		c0-0.659-0.27-1.3-0.73-1.769c-0.931-0.93-2.61-0.93-3.54,0c-0.46,0.46-0.73,1.11-0.73,1.769c0,0.66,0.27,1.301,0.73,1.771
		C129.035,55.705,129.675,55.975,130.335,55.975z"/>
	<path style="fill:#1C1B1A;" d="M150.095,51.705c-0.46,0.47-0.729,1.11-0.729,1.769c0,0.66,0.27,1.301,0.729,1.771
		c0.471,0.46,1.11,0.729,1.771,0.729c0.66,0,1.3-0.269,1.77-0.729c0.471-0.47,0.73-1.11,0.73-1.771c0-0.659-0.26-1.3-0.73-1.769
		C152.705,50.776,151.025,50.776,150.095,51.705z"/>
	<path style="fill:#1C1B1A;" d="M136.793,46.294c0-1.381-1.119-2.5-2.5-2.5h-8.564c-1.381,0-2.5,1.119-2.5,2.5
		c0,1.381,1.119,2.5,2.5,2.5h8.564C135.674,48.794,136.793,47.675,136.793,46.294z"/>
	<path style="fill:#1C1B1A;" d="M147.908,48.794h8.566c1.381,0,2.5-1.119,2.5-2.5c0-1.381-1.119-2.5-2.5-2.5h-8.566
		c-1.381,0-2.5,1.119-2.5,2.5C145.408,47.675,146.527,48.794,147.908,48.794z"/>
	<path style="fill:#1C1B1A;" d="M134.506,61.312c0,1.578,0.642,2.547,1.181,3.081c1.336,1.328,3.221,1.311,4.893,1.303l0.523-0.003
		l0.522,0.003c0.159,0.001,0.32,0.002,0.482,0.002c1.539,0,3.199-0.104,4.408-1.304c0.539-0.535,1.181-1.504,1.181-3.082
		c0-1.381-1.12-2.472-2.501-2.472c-1.145,0-2.111,0.789-2.407,1.846c-0.346,0.014-0.775,0.012-1.127,0.01l-0.559-0.003l-0.559,0.003
		c-0.349,0.002-0.774,0.004-1.116-0.009c-0.277-1.078-1.256-1.875-2.421-1.875C135.625,58.812,134.506,59.931,134.506,61.312z"/>
</g>
</svg>