<?xml version="1.0" ?>
<!DOCTYPE svg  PUBLIC '-//W3C//DTD SVG 1.1//EN'  'http://www.w3.org/Graphics/SVG/1.1/DTD/svg11.dtd'>
<!-- Uploaded to: SVG Repo, www.svgrepo.com, Generator: SVG Repo Mixer Tools -->
<svg fill="#000000" width="800px" height="800px" viewBox="0 0 32 32" style="fill-rule:evenodd;clip-rule:evenodd;stroke-linejoin:round;stroke-miterlimit:2;" version="1.1" xml:space="preserve" xmlns="http://www.w3.org/2000/svg" xmlns:serif="http://www.serif.com/" xmlns:xlink="http://www.w3.org/1999/xlink">
<g id="Icon">
<path d="M16.004,6.576c-2.941,-2.289 -7.202,-2.083 -9.905,0.619c-2.927,2.927 -2.927,7.68 -0,10.607c-0,0 9.192,9.192 9.192,9.192c0.391,0.391 1.024,0.391 1.415,0l9.192,-9.192c2.927,-2.927 2.927,-7.68 -0,-10.607c-2.69,-2.69 -6.951,-2.88 -9.894,-0.619Zm-0.004,2.328c-0,-0 -0,-0 0,-0c0.438,-0.008 0.667,-0.258 0.703,-0.289c2.355,-2.05 5.641,-2.145 7.781,-0.005c2.146,2.146 2.146,5.631 -0,7.778c-0,-0 -8.486,8.485 -8.486,8.485c0,0 -8.485,-8.485 -8.485,-8.485c-2.146,-2.147 -2.146,-5.632 0,-7.778c2.147,-2.147 5.633,-2.146 7.78,0.001c0.187,0.187 0.442,0.293 0.707,0.293Z"/>
</g>
</svg>