<?xml version="1.0" ?><!-- Uploaded to: SVG Repo, www.svgrepo.com, Generator: SVG Repo Mixer Tools -->
<svg width="800px" height="800px" viewBox="0 0 28 28" fill="none" xmlns="http://www.w3.org/2000/svg"><path clip-rule="evenodd" d="M5 2.92445C5 1.8616 5.8616 1 6.92444 1H20.3956C21.4584 1 22.32 1.8616 22.32 2.92444V25.0556C22.32 26.6414 20.5096 27.5466 19.2409 26.5951L13.66 22.4094L8.07911 26.5951C6.81045 27.5466 5 26.6414 5 25.0556V2.92445ZM20.3956 3.50178C20.3956 3.18293 20.1371 2.92444 19.8182 2.92444L7.50178 2.92445C7.18293 2.92445 6.92444 3.18293 6.92444 3.50178V24.4782C6.92444 24.7161 7.19601 24.8519 7.38631 24.7092L12.5053 20.8699C13.1896 20.3567 14.1304 20.3567 14.8147 20.8699L19.9337 24.7092C20.124 24.8519 20.3956 24.7161 20.3956 24.4782V3.50178Z" fill="#000000" fill-rule="evenodd"/><path d="M10 11C10 10.4477 10.4477 10 11 10H17C17.5523 10 18 10.4477 18 11C18 11.5523 17.5523 12 17 12H11C10.4477 12 10 11.5523 10 11Z" fill="#000000"/></svg>